<?xml version="1.0" standalone="no"?>
<!DOCTYPE svg PUBLIC "-//W3C//DTD SVG 20010904//EN"
  "http://www.w3.org/TR/2001/REC-SVG-20010904/DTD/svg10.dtd">
<svg version="1.0" xmlns="http://www.w3.org/2000/svg"
  width="608.000000pt" height="608.000000pt" viewBox="0 0 608.000000 608.000000"
  preserveAspectRatio="xMidYMid meet">
<metadata>
Created by potrace 1.14, written by Peter Selinger 2001-2017
</metadata>
<g transform="translate(0.000000,608.000000) scale(0.100000,-0.100000)"
fill="#000000" stroke="none">
<path d="M4193 6053 c-14 -16 -35 -48 -48 -73 -42 -84 -116 -298 -141 -411 -2
-10 -6 -29 -9 -41 -3 -13 -7 -36 -10 -53 -12 -69 -17 -84 -32 -89 -8 -3 -18
-4 -22 -2 -16 10 -338 19 -691 19 -366 -1 -510 -4 -715 -19 -49 -3 -110 -7
-135 -9 -47 -3 -152 -13 -230 -21 -25 -3 -67 -7 -95 -9 -27 -2 -70 -7 -95 -10
l-45 -6 -27 78 c-32 97 -51 146 -58 153 -3 3 -16 28 -30 55 -78 160 -208 296
-295 308 -74 10 -119 -73 -141 -258 -4 -33 -8 -73 -10 -90 -7 -64 -16 -369
-29 -964 -2 -135 -2 -135 -31 -159 -180 -153 -281 -254 -395 -398 -35 -44 -75
-94 -87 -110 -13 -16 -29 -39 -34 -51 -6 -13 -15 -23 -20 -23 -4 0 -8 -4 -8
-9 0 -5 -18 -36 -40 -69 -89 -135 -265 -517 -285 -620 -2 -12 -7 -27 -10 -32
-3 -5 -8 -18 -10 -28 -1 -9 -8 -35 -13 -57 -6 -22 -13 -51 -16 -65 -3 -14 -11
-50 -18 -80 -22 -91 -22 -93 47 -96 33 -2 103 -6 155 -9 108 -6 286 -16 345
-18 36 -2 44 -7 79 -57 45 -63 183 -235 236 -295 150 -170 397 -391 591 -530
57 -41 109 -78 115 -82 5 -5 21 -15 35 -22 13 -8 65 -39 114 -69 99 -60 328
-177 415 -212 30 -12 69 -28 85 -36 85 -38 277 -101 300 -99 6 0 20 6 33 13
12 7 22 10 22 8 0 -9 185 98 285 164 75 49 151 103 243 172 57 43 108 78 112
78 5 0 10 3 12 8 2 4 36 33 75 65 40 32 83 68 96 80 13 12 66 60 118 107 201
181 479 459 630 631 27 31 70 78 95 105 79 84 181 251 199 326 6 23 18 31 71
48 36 12 70 23 77 24 7 2 19 6 27 9 18 8 181 52 230 63 19 4 40 9 45 10 6 1
46 10 90 19 44 9 90 18 102 20 l22 5 -26 63 c-38 93 -127 269 -180 355 -30 49
-108 167 -113 172 -3 3 -17 21 -30 40 -12 19 -28 40 -34 45 -6 6 -24 27 -40
49 -79 106 -280 304 -406 401 -36 28 -67 52 -70 55 -3 3 -24 18 -47 34 -27 18
-43 37 -44 50 -3 60 -7 108 -13 171 -4 39 -9 90 -11 115 -4 41 -9 83 -20 180
-3 19 -7 58 -11 85 -3 28 -7 64 -9 80 -2 17 -6 54 -9 83 -3 28 -7 55 -9 60 -3
4 -8 38 -12 77 -3 38 -8 72 -10 75 -2 3 -6 28 -9 55 -14 106 -19 143 -42 265
-10 55 -13 72 -18 109 -12 80 -38 121 -76 121 -6 0 -22 -12 -37 -27z m324
-2860 l-2 -148 -65 -56 c-111 -96 -513 -503 -627 -635 -26 -30 -140 -160 -193
-219 -75 -84 -320 -327 -405 -400 -44 -39 -82 -72 -85 -76 -3 -3 -43 -35 -90
-73 -108 -85 -108 -86 -152 -118 l-36 -28 -16 25 c-41 62 -159 156 -491 390
-150 106 -168 119 -214 158 -12 9 -24 17 -27 17 -3 0 -18 10 -33 23 -15 12
-42 33 -61 47 -83 62 -273 212 -293 231 -12 12 -44 40 -71 62 -27 23 -120 113
-207 199 l-158 157 0 191 1 190 26 1 c15 0 36 3 47 5 11 3 40 6 65 9 25 2 45
4 45 5 0 1 14 3 30 4 17 2 48 6 70 9 22 4 67 9 100 12 33 4 71 8 85 10 14 2
52 7 85 10 33 3 76 8 95 10 19 3 55 7 80 9 173 17 228 24 241 32 5 3 9 0 9 -6
0 -6 4 -9 8 -6 11 7 135 20 292 32 47 3 103 8 125 10 38 4 50 5 78 3 6 0 35 2
62 5 88 9 439 29 537 30 38 1 68 3 68 6 0 3 46 5 103 5 56 0 149 2 207 5 58 3
254 6 437 8 l331 2 -1 -147z"/>
<path d="M2976 3169 c-64 -10 -148 -48 -170 -77 -24 -32 -28 -80 -10 -111 17
-28 117 -96 176 -119 35 -14 38 -13 80 16 39 27 65 53 119 120 6 7 13 39 16
71 l6 58 -46 22 c-51 25 -100 30 -171 20z"/>
<path d="M3362 2713 c-40 -61 -104 -128 -143 -148 -27 -14 -69 -19 -122 -14
-27 3 -102 74 -121 114 -9 19 -20 35 -24 35 -4 0 -15 -13 -25 -28 -41 -71
-120 -125 -213 -147 -46 -10 -58 -9 -119 11 -82 28 -165 81 -225 146 -25 26
-51 48 -57 48 -20 0 -21 -24 -1 -53 11 -15 22 -42 24 -60 3 -18 11 -52 19 -77
8 -25 16 -54 18 -65 2 -11 7 -27 10 -35 3 -8 16 -44 28 -80 28 -84 111 -251
151 -304 86 -112 183 -166 305 -168 147 -3 232 109 220 290 -9 135 -27 217
-73 319 -29 66 -29 71 -6 50 9 -8 39 -25 65 -36 68 -29 133 -18 205 37 43 31
42 30 106 112 38 48 47 66 39 78 -17 29 -30 23 -61 -25z"/>
<path d="M5534 2857 c-95 -59 -249 -161 -262 -174 -7 -7 -17 -13 -22 -13 -5 0
-15 -6 -22 -13 -7 -7 -60 -48 -118 -92 -95 -71 -216 -169 -310 -250 -61 -53
-224 -218 -259 -263 -41 -53 -68 -122 -77 -198 -7 -62 -13 -1627 -6 -1656 3
-14 7 -15 18 -5 21 19 37 31 67 50 34 22 38 25 157 124 124 102 249 229 345
347 17 21 40 49 53 64 34 40 170 246 208 316 46 83 122 240 145 301 11 28 24
59 29 70 10 21 70 206 74 227 2 7 8 33 15 58 7 25 15 54 17 65 2 11 6 34 9 50
14 74 34 194 40 240 11 81 14 445 5 515 -5 36 -11 85 -14 110 -13 107 -24 160
-34 159 -4 0 -30 -15 -58 -32z"/>
<path d="M325 2210 c4 -50 8 -101 11 -113 2 -12 6 -43 9 -68 3 -25 8 -56 10
-70 3 -13 8 -40 11 -59 16 -108 102 -393 156 -522 67 -160 265 -508 313 -553
6 -5 38 -45 71 -89 54 -72 224 -252 319 -336 101 -90 301 -234 416 -299 75
-42 71 -43 56 24 -4 17 -9 42 -12 57 -3 16 -7 39 -10 53 -3 14 -7 35 -9 47 -2
13 -11 57 -19 98 -26 127 -27 134 -31 161 -3 14 -17 86 -31 160 -15 74 -29
145 -31 159 -2 14 -9 45 -14 70 -5 25 -12 56 -14 70 -4 22 -17 88 -30 146 -2
12 -7 37 -10 55 -7 42 -13 75 -23 114 -3 17 -8 39 -9 50 -1 11 -11 67 -23 125
-28 136 -30 149 -37 185 -14 81 -55 279 -59 285 -5 7 -22 15 -125 53 -30 11
-64 23 -75 27 -19 8 -71 27 -190 70 -30 11 -79 29 -107 39 -29 11 -84 30 -123
42 -38 12 -79 25 -90 30 -57 22 -212 65 -268 74 l-37 6 5 -91z"/>
</g>
</svg>
